<svg width="40" height="40" viewBox="0 0 40 40" fill="none" xmlns="http://www.w3.org/2000/svg">
<circle cx="20" cy="20" r="20" fill="#FFF4E7"/>
<path d="M29.218 10.606L24.4 9C24.4 10.167 23.9364 11.2861 23.1112 12.1113C22.2861 12.9364 21.1669 13.4 20 13.4C18.833 13.4 17.7139 12.9364 16.8887 12.1113C16.0635 11.2861 15.6 10.167 15.6 9L10.782 10.606C10.2841 10.7719 9.86191 11.1103 9.59161 11.5601C9.32132 12.0099 9.22072 12.5415 9.30797 13.059L9.94597 16.876C9.98785 17.1344 10.1205 17.3694 10.3201 17.5388C10.5197 17.7081 10.7732 17.8008 11.035 17.8H13.4V28.8C13.4 30.01 14.39 31 15.6 31H24.4C24.9834 31 25.543 30.7682 25.9556 30.3556C26.3682 29.9431 26.6 29.3835 26.6 28.8V17.8H28.965C29.2267 17.8008 29.4802 17.7081 29.6798 17.5388C29.8794 17.3694 30.0121 17.1344 30.054 16.876L30.692 13.059C30.7792 12.5415 30.6786 12.0099 30.4083 11.5601C30.138 11.1103 29.7158 10.7719 29.218 10.606Z" stroke="#F65E21" stroke-width="1.5" stroke-linecap="round" stroke-linejoin="round"/>
<path d="M21.2001 18.0361L22.8001 19.6362M23.6697 18.7609C23.8812 18.5495 24.0001 18.2627 24.0001 17.9637C24.0001 17.6646 23.8814 17.3778 23.6699 17.1663C23.4585 16.9548 23.1717 16.836 22.8727 16.8359C22.5736 16.8359 22.2868 16.9547 22.0753 17.1661L16.7368 22.5058C16.6439 22.5984 16.5752 22.7124 16.5368 22.8378L16.0084 24.5787C15.998 24.6133 15.9973 24.65 16.0061 24.685C16.015 24.72 16.0331 24.752 16.0587 24.7775C16.0842 24.803 16.1162 24.8211 16.1512 24.8299C16.1863 24.8387 16.223 24.8379 16.2576 24.8275L17.9988 24.2995C18.1241 24.2614 18.2381 24.1931 18.3308 24.1007L23.6697 18.7609Z" stroke="#F65E21" stroke-linecap="round" stroke-linejoin="round"/>
</svg>
